<svg class="plot-d6a7b5" fill="currentColor" font-family="system-ui, sans-serif" font-size="10" text-anchor="middle" width="800" height="400" viewBox="0 0 800 400" xmlns="http://www.w3.org/2000/svg" xmlns:xlink="http://www.w3.org/1999/xlink"><style>:where(.plot-d6a7b5) {
  --plot-background: white;
  display: block;
  height: auto;
  height: intrinsic;
  max-width: 100%;
}
:where(.plot-d6a7b5 text),
:where(.plot-d6a7b5 tspan) {
  white-space: pre;
}</style><g aria-label="y-axis tick" aria-hidden="true" fill="none" stroke="currentColor" transform="translate(0,12)"><path transform="translate(150,25)" d="M0,0L-6,0"/><path transform="translate(150,52)" d="M0,0L-6,0"/><path transform="translate(150,79)" d="M0,0L-6,0"/><path transform="translate(150,106)" d="M0,0L-6,0"/><path transform="translate(150,133)" d="M0,0L-6,0"/><path transform="translate(150,160)" d="M0,0L-6,0"/><path transform="translate(150,187)" d="M0,0L-6,0"/><path transform="translate(150,214)" d="M0,0L-6,0"/><path transform="translate(150,241)" d="M0,0L-6,0"/><path transform="translate(150,268)" d="M0,0L-6,0"/><path transform="translate(150,295)" d="M0,0L-6,0"/><path transform="translate(150,322)" d="M0,0L-6,0"/></g><g aria-label="y-axis tick label" text-anchor="end" transform="translate(-9,12)"><text y="0.32em" transform="translate(150,25)">Large City</text><text y="0.32em" transform="translate(150,52)">Midsize City</text><text y="0.32em" transform="translate(150,79)">Small City</text><text y="0.32em" transform="translate(150,106)">Large Suburban</text><text y="0.32em" transform="translate(150,133)">Midsize Suburban</text><text y="0.32em" transform="translate(150,160)">Small Suburban</text><text y="0.32em" transform="translate(150,187)">Fringe Town</text><text y="0.32em" transform="translate(150,214)">Distant Town</text><text y="0.32em" transform="translate(150,241)">Remote Town</text><text y="0.32em" transform="translate(150,268)">Fringe Rural</text><text y="0.32em" transform="translate(150,295)">Distant Rural</text><text y="0.32em" transform="translate(150,322)">Remote Rural</text></g><g aria-label="x-grid" aria-hidden="true" stroke="currentColor" stroke-opacity="0.1"><line x1="150" x2="150" y1="20" y2="352"/><line x1="262.9032258064516" x2="262.9032258064516" y1="20" y2="352"/><line x1="375.80645161290323" x2="375.80645161290323" y1="20" y2="352"/><line x1="488.7096774193549" x2="488.7096774193549" y1="20" y2="352"/><line x1="601.6129032258065" x2="601.6129032258065" y1="20" y2="352"/><line x1="714.5161290322582" x2="714.5161290322582" y1="20" y2="352"/></g><g aria-label="x-axis tick" aria-hidden="true" fill="none" stroke="currentColor"><path transform="translate(150,352)" d="M0,0L0,6"/><path transform="translate(262.9032258064516,352)" d="M0,0L0,6"/><path transform="translate(375.80645161290323,352)" d="M0,0L0,6"/><path transform="translate(488.7096774193549,352)" d="M0,0L0,6"/><path transform="translate(601.6129032258065,352)" d="M0,0L0,6"/><path transform="translate(714.5161290322582,352)" d="M0,0L0,6"/></g><g aria-label="x-axis tick label" font-variant="tabular-nums" transform="translate(0,9)"><text y="0.71em" transform="translate(150,352)">0</text><text y="0.71em" transform="translate(262.9032258064516,352)">5</text><text y="0.71em" transform="translate(375.80645161290323,352)">10</text><text y="0.71em" transform="translate(488.7096774193549,352)">15</text><text y="0.71em" transform="translate(601.6129032258065,352)">20</text><text y="0.71em" transform="translate(714.5161290322582,352)">25</text></g><g aria-label="x-axis label" transform="translate(0,45)"><text transform="translate(465,352)">Chinese restaurants per 100 Chinese people →</text></g><g aria-label="bar" fill="deeppink"><rect x="150" width="23.230700478144342" y="25" height="24"><title>Avg % Chinese: 2.50%</title></rect><rect x="150" width="33.00707304134562" y="52" height="24"><title>Avg % Chinese: 1.33%</title></rect><rect x="150" width="40.804802338256394" y="79" height="24"><title>Avg % Chinese: 1.20%</title></rect><rect x="150" width="29.132535455220278" y="106" height="24"><title>Avg % Chinese: 1.46%</title></rect><rect x="150" width="62.987799119063766" y="133" height="24"><title>Avg % Chinese: 0.58%</title></rect><rect x="150" width="92.87233011645736" y="160" height="24"><title>Avg % Chinese: 0.51%</title></rect><rect x="150" width="233.35122607910296" y="187" height="24"><title>Avg % Chinese: 0.29%</title></rect><rect x="150" width="357.64014090366965" y="214" height="24"><title>Avg % Chinese: 0.26%</title></rect><rect x="150" width="297.55153980139164" y="241" height="24"><title>Avg % Chinese: 0.26%</title></rect><rect x="150" width="9.532565185970611" y="268" height="24"><title>Avg % Chinese: 0.44%</title></rect><rect x="150" width="75.00857158200427" y="295" height="24"><title>Avg % Chinese: 0.10%</title></rect><rect x="150" width="197.01234033340552" y="322" height="24"><title>Avg % Chinese: 0.06%</title></rect></g><g aria-label="dot" fill="aquamarine" transform="translate(0,12)"><circle cx="170.32258064516128" cy="25" r="4"><title>Avg distance to Chinese restaurant
0.9 km</title></circle><circle cx="177.0967741935484" cy="52" r="4"><title>Avg distance to Chinese restaurant
1.2 km</title></circle><circle cx="179.3548387096774" cy="79" r="4"><title>Avg distance to Chinese restaurant
1.3 km</title></circle><circle cx="183.8709677419355" cy="106" r="4"><title>Avg distance to Chinese restaurant
1.5 km</title></circle><circle cx="195.16129032258067" cy="133" r="4"><title>Avg distance to Chinese restaurant
2.0 km</title></circle><circle cx="199.67741935483872" cy="160" r="4"><title>Avg distance to Chinese restaurant
2.2 km</title></circle><circle cx="201.93548387096774" cy="187" r="4"><title>Avg distance to Chinese restaurant
2.3 km</title></circle><circle cx="199.67741935483872" cy="214" r="4"><title>Avg distance to Chinese restaurant
2.2 km</title></circle><circle cx="226.77419354838707" cy="241" r="4"><title>Avg distance to Chinese restaurant
3.4 km</title></circle><circle cx="267.4193548387097" cy="268" r="4"><title>Avg distance to Chinese restaurant
5.2 km</title></circle><circle cx="441.2903225806452" cy="295" r="4"><title>Avg distance to Chinese restaurant
12.9 km</title></circle><circle cx="780" cy="322" r="4"><title>Avg distance to Chinese restaurant
27.9 km</title></circle></g></svg>